# xmcd CD database file generated by Grip 3.2.0
# 
# Track frame offsets:
#       150
#       14232
#       27117
#       41405
#       54900
#       66990
#       81820
#       94555
#       108410
#       121837
#       135530
#       149637
#       163157
#       176865
#       191065
#       203972
#       217165
#       231477
#       243327
#       257335
#       270322
#       282452
#       296690
#       310647
#       323087
#       336530
# 
# Disc length: 4675 seconds
# 
# Revision: 2
# Processed by: cddbd v1.5.1PL0 Copyright (c) Steve Scherf et al.
# Submitted via: Grip 3.2.0
# 
DISCID=9012411a
DTITLE=Benny Goodman Small Groups - Stealin' Apples
DYEAR=1947
DGENRE=Swing
TTITLE0=Bernie - Pinkard - Casey - Sweet Georgia Brown
TTITLE1=Ruby - Green - Stept - I'll Always Be In Love With You
TTITLE2=Burwell - Parish - Sweet Lorraine
TTITLE3=W.C. Handy - St. Louis Blues
TTITLE4=Yourmans - Caldwell - I Know That You Know v.1
TTITLE5=Duke - Gershwin - I Can't Get Started
TTITLE6=Austin - Shilkreet - The Lonesome Road
TTITLE7=James - Swift - Fine And Dandy
TTITLE8=Turk - Ahlert - Mean To Me
TTITLE9=I. Berlin - Puttin' On The Ritz
TTITLE10=Pitts - Egan - Marsh - I Never Knew
TTITLE11=Arodin - Carmichael - Lazy River
TTITLE12=Magidson - Wrubel - Music Maestro Please
TTITLE13=Kahn - Donaldson - Makin' Whoopee
TTITLE14=R. Noble - Cherokee (Indian Love Song)
TTITLE15=Delibes - Goodman - The Maids Of Cadiz
TTITLE16=Robin - Gensler - Love Is Just Around The Corner
TTITLE17=Youmans - Caldwell - I Know That You Know v.2
TTITLE18=Powell - Goodman - Hampton - Hi 'Ya Sophia
TTITLE19=Warren - Dixon - Nagasaki
TTITLE20=DeSylva - Brown - Henderson - The Varsity Drag
TTITLE21=M. Powell - Shirley Steps Out
TTITLE22=L. Pollack - That's A Plenty
TTITLE23=Seitz - Lockhart - The World Is Waiting For The Sunrise
TTITLE24=Rodgers - Hart - There's A Small Hotel
TTITLE25=Waller - Razaf - Stealin' Apples
EXTD=Nr. 5 u. 18 (alt) sind nach meiner CD doppelt - ab Nr. 6 sollten eigent
EXTD=lich alle Titel  ein Nummer Höher verzeichnet werden. Auf meiner CD w
EXTD=eren die Komponisten der Songs irrtümlich zum Titel gezogen. Ich habe
EXTD=das geändert.
EXTT0=
EXTT1=
EXTT2=
EXTT3=
EXTT4=
EXTT5=
EXTT6=
EXTT7=
EXTT8=
EXTT9=
EXTT10=
EXTT11=
EXTT12=
EXTT13=
EXTT14=
EXTT15=
EXTT16=
EXTT17=
EXTT18=
EXTT19=
EXTT20=
EXTT21=
EXTT22=
EXTT23=
EXTT24=
EXTT25=
PLAYORDER=
